<svg xmlns="http://www.w3.org/2000/svg" version="1.1" xmlns:xlink="http://www.w3.org/1999/xlink" xmlns:svgjs="http://svgjs.dev/svgjs" width="90" height="84"><svg width="90" height="84" viewBox="0 0 90 84" fill="none" xmlns="http://www.w3.org/2000/svg">
<mask id="SvgjsMask1180" style="mask-type:luminance" maskUnits="userSpaceOnUse" x="0" y="0" width="55" height="84">
<path d="M0 0H54.0208V83.5938H0V0Z" fill="white"></path>
</mask>
<g mask="url(#mask0_3_169)">
<path d="M21.3906 4.1875L50.3021 33.099C50.8802 33.6771 51.401 34.3125 51.8594 34.9948C52.3177 35.6823 52.7031 36.401 53.0156 37.1615C53.3333 37.9219 53.5677 38.7083 53.7292 39.5156C53.8906 40.3229 53.974 41.1354 53.974 41.9583C53.974 42.7813 53.8906 43.599 53.7292 44.4063C53.5677 45.2135 53.3333 45.9948 53.0156 46.7552C52.7031 47.5156 52.3177 48.2396 51.8594 48.9219C51.401 49.6042 50.8802 50.2396 50.3021 50.8229L21.3906 79.7292C13.4948 87.625 -0.0104173 82.0313 2.9912e-09 70.8594V13.0417C-0.0104173 1.88542 13.4948 -3.70833 21.3906 4.1875Z" fill="#00BF63"></path>
</g>
<mask id="SvgjsMask1179" style="mask-type:luminance" maskUnits="userSpaceOnUse" x="0" y="0" width="55" height="64">
<path d="M0 0H54.0208V63.9115H0V0Z" fill="white"></path>
</mask>
<g mask="url(#mask1_3_169)">
<path d="M21.3906 4.1875C13.5417 -3.66146 0.192708 1.82292 0.00520802 12.8542C0.00520802 12.8542 45.4948 55.8958 38.2604 62.9115L50.3281 50.849C50.9063 50.2656 51.4271 49.6302 51.8854 48.9479C52.3438 48.2656 52.7292 47.5417 53.0417 46.7813C53.3594 46.0208 53.5938 45.2396 53.7552 44.4323C53.9167 43.625 53.9948 42.8073 53.9948 41.9844C53.9948 41.1615 53.9167 40.349 53.7552 39.5417C53.5938 38.7344 53.3594 37.9479 53.0417 37.1875C52.7292 36.4271 52.3438 35.7083 51.8854 35.0208C51.4271 34.3385 50.9063 33.7031 50.3281 33.125L21.3906 4.1875Z" fill="#7ED957"></path>
</g>
<mask id="SvgjsMask1178" style="mask-type:luminance" maskUnits="userSpaceOnUse" x="72" y="0" width="18" height="18">
<path d="M72.6875 0H89.5677V17.2448H72.6875V0Z" fill="white"></path>
</mask>
<g mask="url(#mask2_3_169)">
<path d="M89.9375 8.28646C89.9375 8.82292 89.8854 9.35417 89.7812 9.88542C89.6771 10.4115 89.5208 10.9219 89.3177 11.4219C89.1094 11.9167 88.8594 12.3906 88.5573 12.8385C88.2604 13.2865 87.9219 13.6979 87.5417 14.0781C87.1615 14.4583 86.7448 14.7969 86.2969 15.099C85.849 15.3958 85.3802 15.6458 84.8802 15.8542C84.3854 16.0573 83.875 16.2135 83.3437 16.3177C82.8177 16.4271 82.2865 16.4792 81.75 16.4792C81.2083 16.4792 80.6771 16.4271 80.151 16.3177C79.625 16.2135 79.1094 16.0573 78.6146 15.8542C78.1146 15.6458 77.6458 15.3958 77.1979 15.099C76.75 14.7969 76.3385 14.4583 75.9583 14.0781C75.5781 13.6979 75.2344 13.2865 74.9375 12.8385C74.6406 12.3906 74.3854 11.9167 74.1823 11.4219C73.974 10.9219 73.8177 10.4115 73.7135 9.88542C73.6094 9.35417 73.5573 8.82292 73.5573 8.28646C73.5573 7.75 73.6094 7.21354 73.7135 6.6875C73.8177 6.16146 73.974 5.65104 74.1823 5.15104C74.3854 4.65625 74.6406 4.18229 74.9375 3.73438C75.2344 3.28646 75.5781 2.875 75.9583 2.49479C76.3385 2.11458 76.75 1.77604 77.1979 1.47396C77.6458 1.17708 78.1146 0.921874 78.6146 0.71875C79.1094 0.510417 79.625 0.359376 80.151 0.25C80.6771 0.145833 81.2083 0.09375 81.75 0.09375C82.2865 0.09375 82.8177 0.145833 83.3437 0.25C83.875 0.359376 84.3854 0.510417 84.8802 0.71875C85.3802 0.921874 85.849 1.17708 86.2969 1.47396C86.7448 1.77604 87.1615 2.11458 87.5417 2.49479C87.9219 2.875 88.2604 3.28646 88.5573 3.73438C88.8594 4.18229 89.1094 4.65625 89.3177 5.15104C89.5208 5.65104 89.6771 6.16146 89.7812 6.6875C89.8854 7.21354 89.9375 7.75 89.9375 8.28646Z" fill="#C1FF72"></path>
<path d="M89.9375 8.28646C89.9375 8.82292 89.8854 9.35417 89.7812 9.88542C89.6771 10.4115 89.5208 10.9219 89.3177 11.4219C89.1094 11.9167 88.8594 12.3906 88.5573 12.8385C88.2604 13.2865 87.9219 13.6979 87.5417 14.0781C87.1615 14.4583 86.7448 14.7969 86.2969 15.099C85.849 15.3958 85.3802 15.6458 84.8802 15.8542C84.3854 16.0573 83.875 16.2135 83.3437 16.3177C82.8177 16.4271 82.2865 16.4792 81.75 16.4792C81.2083 16.4792 80.6771 16.4271 80.151 16.3177C79.625 16.2135 79.1094 16.0573 78.6146 15.8542C78.1146 15.6458 77.6458 15.3958 77.1979 15.099C76.75 14.7969 76.3385 14.4583 75.9583 14.0781C75.5781 13.6979 75.2344 13.2865 74.9375 12.8385C74.6406 12.3906 74.3854 11.9167 74.1823 11.4219C73.974 10.9219 73.8177 10.4115 73.7135 9.88542C73.6094 9.35417 73.5573 8.82292 73.5573 8.28646C73.5573 7.75 73.6094 7.21354 73.7135 6.6875C73.8177 6.16146 73.974 5.65104 74.1823 5.15104C74.3854 4.65625 74.6406 4.18229 74.9375 3.73438C75.2344 3.28646 75.5781 2.875 75.9583 2.49479C76.3385 2.11458 76.75 1.77604 77.1979 1.47396C77.6458 1.17708 78.1146 0.921874 78.6146 0.71875C79.1094 0.510417 79.625 0.359376 80.151 0.25C80.6771 0.145833 81.2083 0.09375 81.75 0.09375C82.2865 0.09375 82.8177 0.145833 83.3437 0.25C83.875 0.359376 84.3854 0.510417 84.8802 0.71875C85.3802 0.921874 85.849 1.17708 86.2969 1.47396C86.7448 1.77604 87.1615 2.11458 87.5417 2.49479C87.9219 2.875 88.2604 3.28646 88.5573 3.73438C88.8594 4.18229 89.1094 4.65625 89.3177 5.15104C89.5208 5.65104 89.6771 6.16146 89.7812 6.6875C89.8854 7.21354 89.9375 7.75 89.9375 8.28646Z" fill="#C1FF72"></path>
</g>
<mask id="SvgjsMask1177" style="mask-type:luminance" maskUnits="userSpaceOnUse" x="34" y="1" width="56" height="83">
<path d="M34.0208 1.24478H89.5677V83.5937H34.0208V1.24478Z" fill="white"></path>
</mask>
<g mask="url(#mask3_3_169)">
<path d="M86.2656 33.1667L57.3542 4.26041C49.5938 -3.51043 28.9063 5.49999 35.9896 12.5781L56.7761 33.375C57.3594 33.9531 57.8802 34.5885 58.3386 35.2708C58.7917 35.9531 59.1771 36.6771 59.4948 37.4375C59.8073 38.1979 60.0469 38.9792 60.2083 39.7864C60.3698 40.5937 60.4479 41.4114 60.4479 42.2344C60.4479 43.0573 60.3698 43.8698 60.2083 44.6771C60.0469 45.4844 59.8073 46.2656 59.4948 47.026C59.1771 47.7864 58.7917 48.5104 58.3386 49.1927C57.8802 49.875 57.3594 50.5104 56.7761 51.0937L36 71.875C29.6667 78.2031 49.6719 87.5365 57.3542 79.8542L86.2656 50.9427C86.849 50.3594 87.375 49.7292 87.8333 49.0417C88.2917 48.3542 88.6823 47.6302 89 46.8698C89.3177 46.1042 89.5573 45.3177 89.7188 44.5104C89.8802 43.6979 89.9583 42.8802 89.9583 42.0573C89.9583 41.2292 89.8802 40.4114 89.7188 39.5989C89.5573 38.7917 89.3177 38.0052 89 37.2448C88.6823 36.4792 88.2917 35.7552 87.8333 35.0677C87.375 34.3854 86.849 33.75 86.2656 33.1667Z" fill="#7ED957"></path>
</g>
<mask id="SvgjsMask1176" style="mask-type:luminance" maskUnits="userSpaceOnUse" x="34" y="1" width="56" height="62">
<path d="M34.0208 1.24478H89.5677V62.5781H34.0208V1.24478Z" fill="white"></path>
</mask>
<g mask="url(#mask4_3_169)">
<path d="M86.2656 33.1667L57.3542 4.26041C49.5938 -3.51043 28.9063 5.49999 35.9896 12.5781L56.7761 33.375C57.7813 34.375 58.5886 35.5156 59.2031 36.7917C59.8177 38.0729 60.2031 39.4167 60.3594 40.8229C67.5261 49.2344 73.4792 57.401 74.7188 62.4896L86.2813 50.9219C86.8646 50.3437 87.3906 49.7083 87.849 49.0208C88.3073 48.3333 88.6927 47.6094 89.0052 46.8489C89.3229 46.0885 89.5625 45.3021 89.7188 44.4948C89.8802 43.6823 89.9636 42.8646 89.9583 42.0417C89.9583 41.2187 89.8802 40.401 89.7136 39.5937C89.5521 38.7812 89.3125 38 88.9948 37.2344C88.6823 36.4739 88.2917 35.75 87.8333 35.0677C87.3698 34.3802 86.849 33.75 86.2656 33.1667Z" fill="#00BF63"></path>
</g>
</svg><style>@media (prefers-color-scheme: light) { :root { filter: none; } }
@media (prefers-color-scheme: dark) { :root { filter: none; } }
</style></svg>