<svg width="357" height="84" viewBox="0 0 357 84" fill="none" xmlns="http://www.w3.org/2000/svg">
<mask id="mask0_5_355" style="mask-type:luminance" maskUnits="userSpaceOnUse" x="0" y="0" width="55" height="84">
<path d="M0.645828 0.0885468H54.6667V83.6823H0.645828V0.0885468Z" fill="white"/>
</mask>
<g mask="url(#mask0_5_355)">
<path d="M22.0365 4.27604L50.9479 33.1875C51.526 33.7656 52.0469 34.401 52.5052 35.0833C52.9635 35.7708 53.349 36.4896 53.6615 37.25C53.9792 38.0104 54.2135 38.7969 54.375 39.6042C54.5365 40.4115 54.6198 41.224 54.6198 42.0469C54.6198 42.8698 54.5365 43.6875 54.375 44.4948C54.2135 45.3021 53.9792 46.0833 53.6615 46.8438C53.349 47.6042 52.9635 48.3281 52.5052 49.0104C52.0469 49.6927 51.526 50.3281 50.9479 50.9115L22.0365 79.8177C14.1406 87.7135 0.635417 82.1198 0.645834 70.9479V13.1302C0.635417 1.97396 14.1406 -3.61979 22.0365 4.27604Z" fill="#00BF63"/>
</g>
<mask id="mask1_5_355" style="mask-type:luminance" maskUnits="userSpaceOnUse" x="0" y="0" width="55" height="64">
<path d="M0.645828 0.0885468H54.6667V64H0.645828V0.0885468Z" fill="white"/>
</mask>
<g mask="url(#mask1_5_355)">
<path d="M22.0364 4.27605C14.1875 -3.5729 0.838531 1.91147 0.651031 12.9427C0.651031 12.9427 46.1406 55.9844 38.9062 63L50.9739 50.9375C51.5521 50.3542 52.0729 49.7188 52.5312 49.0365C52.9896 48.3542 53.375 47.6302 53.6875 46.8698C54.0052 46.1094 54.2396 45.3281 54.401 44.5208C54.5625 43.7136 54.6406 42.8958 54.6406 42.0729C54.6406 41.25 54.5625 40.4375 54.401 39.6302C54.2396 38.8229 54.0052 38.0365 53.6875 37.2761C53.375 36.5156 52.9896 35.7969 52.5312 35.1094C52.0729 34.4271 51.5521 33.7917 50.9739 33.2136L22.0364 4.27605Z" fill="#7ED957"/>
</g>
<mask id="mask2_5_355" style="mask-type:luminance" maskUnits="userSpaceOnUse" x="73" y="0" width="18" height="18">
<path d="M73.3333 0.0885468H90.2135V17.3333H73.3333V0.0885468Z" fill="white"/>
</mask>
<g mask="url(#mask2_5_355)">
<path d="M90.5833 8.37501C90.5833 8.91146 90.5312 9.44271 90.4271 9.97396C90.3229 10.5 90.1667 11.0104 89.9635 11.5104C89.7552 12.0052 89.5052 12.4792 89.2031 12.9271C88.9062 13.375 88.5677 13.7865 88.1875 14.1667C87.8073 14.5469 87.3906 14.8854 86.9427 15.1875C86.4948 15.4844 86.026 15.7344 85.526 15.9427C85.0312 16.1458 84.5208 16.3021 83.9896 16.4063C83.4635 16.5156 82.9323 16.5677 82.3958 16.5677C81.8542 16.5677 81.3229 16.5156 80.7969 16.4063C80.2708 16.3021 79.7552 16.1458 79.2604 15.9427C78.7604 15.7344 78.2917 15.4844 77.8437 15.1875C77.3958 14.8854 76.9844 14.5469 76.6042 14.1667C76.224 13.7865 75.8802 13.375 75.5833 12.9271C75.2865 12.4792 75.0312 12.0052 74.8281 11.5104C74.6198 11.0104 74.4635 10.5 74.3594 9.97396C74.2552 9.44271 74.2031 8.91146 74.2031 8.37501C74.2031 7.83855 74.2552 7.30209 74.3594 6.77605C74.4635 6.25001 74.6198 5.73959 74.8281 5.23959C75.0312 4.7448 75.2865 4.27084 75.5833 3.82292C75.8802 3.375 76.224 2.96355 76.6042 2.58334C76.9844 2.20313 77.3958 1.86459 77.8437 1.56251C78.2917 1.26563 78.7604 1.01042 79.2604 0.807297C79.7552 0.598963 80.2708 0.447923 80.7969 0.338547C81.3229 0.23438 81.8542 0.182297 82.3958 0.182297C82.9323 0.182297 83.4635 0.23438 83.9896 0.338547C84.5208 0.447923 85.0312 0.598963 85.526 0.807297C86.026 1.01042 86.4948 1.26563 86.9427 1.56251C87.3906 1.86459 87.8073 2.20313 88.1875 2.58334C88.5677 2.96355 88.9062 3.375 89.2031 3.82292C89.5052 4.27084 89.7552 4.7448 89.9635 5.23959C90.1667 5.73959 90.3229 6.25001 90.4271 6.77605C90.5312 7.30209 90.5833 7.83855 90.5833 8.37501Z" fill="#C1FF72"/>
<path d="M90.5833 8.37501C90.5833 8.91146 90.5312 9.44271 90.4271 9.97396C90.3229 10.5 90.1667 11.0104 89.9635 11.5104C89.7552 12.0052 89.5052 12.4792 89.2031 12.9271C88.9062 13.375 88.5677 13.7865 88.1875 14.1667C87.8073 14.5469 87.3906 14.8854 86.9427 15.1875C86.4948 15.4844 86.026 15.7344 85.526 15.9427C85.0312 16.1458 84.5208 16.3021 83.9896 16.4063C83.4635 16.5156 82.9323 16.5677 82.3958 16.5677C81.8542 16.5677 81.3229 16.5156 80.7969 16.4063C80.2708 16.3021 79.7552 16.1458 79.2604 15.9427C78.7604 15.7344 78.2917 15.4844 77.8437 15.1875C77.3958 14.8854 76.9844 14.5469 76.6042 14.1667C76.224 13.7865 75.8802 13.375 75.5833 12.9271C75.2865 12.4792 75.0312 12.0052 74.8281 11.5104C74.6198 11.0104 74.4635 10.5 74.3594 9.97396C74.2552 9.44271 74.2031 8.91146 74.2031 8.37501C74.2031 7.83855 74.2552 7.30209 74.3594 6.77605C74.4635 6.25001 74.6198 5.73959 74.8281 5.23959C75.0312 4.7448 75.2865 4.27084 75.5833 3.82292C75.8802 3.375 76.224 2.96355 76.6042 2.58334C76.9844 2.20313 77.3958 1.86459 77.8437 1.56251C78.2917 1.26563 78.7604 1.01042 79.2604 0.807297C79.7552 0.598963 80.2708 0.447923 80.7969 0.338547C81.3229 0.23438 81.8542 0.182297 82.3958 0.182297C82.9323 0.182297 83.4635 0.23438 83.9896 0.338547C84.5208 0.447923 85.0312 0.598963 85.526 0.807297C86.026 1.01042 86.4948 1.26563 86.9427 1.56251C87.3906 1.86459 87.8073 2.20313 88.1875 2.58334C88.5677 2.96355 88.9062 3.375 89.2031 3.82292C89.5052 4.27084 89.7552 4.7448 89.9635 5.23959C90.1667 5.73959 90.3229 6.25001 90.4271 6.77605C90.5312 7.30209 90.5833 7.83855 90.5833 8.37501Z" fill="#C1FF72"/>
</g>
<mask id="mask3_5_355" style="mask-type:luminance" maskUnits="userSpaceOnUse" x="34" y="1" width="57" height="83">
<path d="M34.6667 1.33333H90.2135V83.6823H34.6667V1.33333Z" fill="white"/>
</mask>
<g mask="url(#mask3_5_355)">
<path d="M86.9115 33.2552L58 4.34895C50.2396 -3.42188 29.5521 5.58854 36.6354 12.6667L57.4219 33.4635C58.0052 34.0417 58.526 34.6771 58.9844 35.3594C59.4375 36.0417 59.8229 36.7656 60.1406 37.526C60.4531 38.2865 60.6927 39.0677 60.8542 39.875C61.0156 40.6823 61.0937 41.5 61.0937 42.3229C61.0937 43.1458 61.0156 43.9583 60.8542 44.7656C60.6927 45.5729 60.4531 46.3542 60.1406 47.1146C59.8229 47.875 59.4375 48.599 58.9844 49.2812C58.526 49.9635 58.0052 50.599 57.4219 51.1823L36.6458 71.9635C30.3125 78.2917 50.3177 87.625 58 79.9427L86.9115 51.0312C87.4948 50.4479 88.0208 49.8177 88.4792 49.1302C88.9375 48.4427 89.3281 47.7187 89.6458 46.9583C89.9635 46.1927 90.2031 45.4062 90.3646 44.599C90.526 43.7865 90.6042 42.9687 90.6042 42.1458C90.6042 41.3177 90.526 40.5 90.3646 39.6875C90.2031 38.8802 89.9635 38.0937 89.6458 37.3333C89.3281 36.5677 88.9375 35.8437 88.4792 35.1562C88.0208 34.474 87.4948 33.8385 86.9115 33.2552Z" fill="#7ED957"/>
</g>
<mask id="mask4_5_355" style="mask-type:luminance" maskUnits="userSpaceOnUse" x="34" y="1" width="57" height="62">
<path d="M34.6667 1.33333H90.2135V62.6667H34.6667V1.33333Z" fill="white"/>
</mask>
<g mask="url(#mask4_5_355)">
<path d="M86.9115 33.2552L58 4.34895C50.2396 -3.42188 29.5521 5.58854 36.6354 12.6667L57.4219 33.4635C58.4271 34.4635 59.2344 35.6042 59.849 36.8802C60.4635 38.1615 60.849 39.5052 61.0052 40.9115C68.1719 49.3229 74.125 57.4896 75.3646 62.5781L86.9271 51.0104C87.5104 50.4323 88.0365 49.7969 88.4948 49.1094C88.9531 48.4219 89.3385 47.6979 89.651 46.9375C89.9687 46.1771 90.2083 45.3906 90.3646 44.5833C90.526 43.7708 90.6094 42.9531 90.6042 42.1302C90.6042 41.3073 90.526 40.4896 90.3594 39.6823C90.1979 38.8698 89.9583 38.0885 89.6406 37.3229C89.3281 36.5625 88.9375 35.8385 88.4792 35.1562C88.0156 34.4687 87.4948 33.8385 86.9115 33.2552Z" fill="#00BF63"/>
</g>
<path d="M130.519 63.7899C128.212 63.7899 126.024 63.4462 123.956 62.7691C121.884 62.092 119.988 61.1232 118.269 59.8732C116.561 58.6232 115.071 57.1545 113.811 55.4566C112.561 53.7482 111.587 51.868 110.894 49.8107C110.196 47.7587 109.852 45.5972 109.852 43.3316C109.852 41.0555 110.196 38.8941 110.894 36.8524C111.587 34.8003 112.561 32.9253 113.811 31.2274C115.071 29.5347 116.561 28.0607 118.269 26.8107C119.988 25.5607 121.884 24.5972 123.956 23.9149C126.024 23.2378 128.212 22.8941 130.519 22.8941C132.587 22.8941 134.634 23.2066 136.665 23.8316C138.706 24.4462 140.608 25.3837 142.373 26.6441C144.134 27.8941 145.628 29.4774 146.852 31.3941C148.087 33.3107 148.936 35.5764 149.394 38.1857H142.081C141.566 36.1753 140.738 34.5295 139.602 33.2482C138.462 31.9566 137.092 31.0087 135.498 30.3941C133.899 29.7691 132.17 29.4566 130.311 29.4566C128.477 29.4566 126.753 29.7899 125.144 30.4566C123.529 31.1128 122.113 32.0555 120.894 33.2899C119.67 34.5139 118.717 35.9774 118.04 37.6857C117.358 39.3837 117.019 41.2691 117.019 43.3524C117.019 45.493 117.358 47.4097 118.04 49.1024C118.717 50.8003 119.67 52.2482 120.894 53.4566C122.113 54.6649 123.529 55.5972 125.144 56.2482C126.753 56.8889 128.477 57.2066 130.311 57.2066C132.17 57.2066 133.894 56.9045 135.477 56.2899C137.061 55.6649 138.425 54.717 139.581 53.4357C140.733 52.1441 141.561 50.5087 142.061 48.5191H149.394C148.936 51.118 148.087 53.3837 146.852 55.3107C145.628 57.243 144.144 58.8316 142.394 60.0816C140.654 61.3316 138.769 62.2639 136.727 62.8732C134.686 63.4826 132.613 63.7899 130.519 63.7899Z" fill="#231F20"/>
<path d="M162.367 62.9566H155.409V22.4357H162.367V34.4982L162.2 37.8107C163.117 36.2014 164.435 34.9097 166.159 33.9357C167.877 32.967 169.872 32.4774 172.138 32.4774C176.107 32.4774 179.081 33.743 181.054 36.2691C183.023 38.7847 184.013 42.368 184.013 47.0191V62.9566H177.054V47.1649C177.054 44.2222 176.435 42.1128 175.2 40.8316C173.976 39.5399 172.31 38.8941 170.2 38.8941C169.185 38.8941 168.206 39.1128 167.263 39.5399C166.331 39.9722 165.492 40.5816 164.742 41.3732C164.002 42.1649 163.419 43.1128 162.992 44.2066C162.575 45.3055 162.367 46.5191 162.367 47.8524V62.9566Z" fill="#231F20"/>
<path d="M203.79 63.8524C201.79 63.8524 199.941 63.4462 198.249 62.6441C196.551 61.842 195.072 60.7222 193.811 59.2899C192.561 57.8472 191.587 56.1753 190.895 54.2691C190.197 52.368 189.853 50.3316 189.853 48.1649C189.853 45.9983 190.197 43.9722 190.895 42.0816C191.603 40.1962 192.582 38.5347 193.832 37.1024C195.092 35.6597 196.566 34.5295 198.249 33.7066C199.941 32.8889 201.78 32.4774 203.77 32.4774C206.186 32.4774 208.332 33.0087 210.207 34.0608C212.082 35.1024 213.488 36.5399 214.436 38.3733V33.3733H221.061V62.9566H214.436V57.9774C213.478 59.8264 212.061 61.2691 210.186 62.3108C208.322 63.3368 206.191 63.8524 203.79 63.8524ZM205.457 57.3941C206.665 57.3941 207.796 57.1649 208.853 56.7066C209.905 56.2378 210.832 55.5816 211.624 54.7483C212.426 53.9149 213.046 52.9358 213.478 51.8108C213.921 50.6858 214.145 49.4722 214.145 48.1649C214.145 46.8733 213.915 45.6753 213.457 44.5608C213.009 43.4358 212.395 42.4514 211.603 41.6024C210.822 40.7587 209.905 40.1024 208.853 39.6441C207.796 39.1753 206.665 38.9358 205.457 38.9358C203.858 38.9358 202.4 39.3212 201.082 40.0816C199.775 40.8472 198.728 41.9253 197.936 43.3108C197.155 44.6858 196.77 46.3055 196.77 48.1649C196.77 50.0816 197.165 51.7378 197.957 53.1233C198.749 54.4983 199.801 55.5555 201.124 56.2899C202.457 57.0295 203.9 57.3941 205.457 57.3941Z" fill="#231F20"/>
<path d="M247.412 62.9566H241.392C240.517 62.9566 239.61 62.8837 238.683 62.7274C237.751 62.5607 236.86 62.2587 236.017 61.8107C235.168 61.368 234.412 60.7274 233.746 59.8941C233.09 59.0607 232.563 57.9774 232.162 56.6441C231.772 55.3107 231.579 53.6649 231.579 51.7066V39.3524H225.454V33.3732H231.579V24.7066L238.558 24.6441V33.3732H247.412V39.3524H238.558V52.0191C238.558 53.4097 238.756 54.4774 239.162 55.2274C239.563 55.967 240.09 56.4722 240.746 56.7482C241.412 57.0295 242.11 57.1649 242.85 57.1649H247.412V62.9566Z" fill="#231F20"/>
<path d="M271.241 62.9566H265.22C264.345 62.9566 263.439 62.8837 262.512 62.7274C261.579 62.5607 260.689 62.2587 259.845 61.8107C258.996 61.368 258.241 60.7274 257.574 59.8941C256.918 59.0607 256.392 57.9774 255.991 56.6441C255.6 55.3107 255.407 53.6649 255.407 51.7066V39.3524H249.282V33.3732H255.407V24.7066L262.387 24.6441V33.3732H271.241V39.3524H262.387V52.0191C262.387 53.4097 262.585 54.4774 262.991 55.2274C263.392 55.967 263.918 56.4722 264.574 56.7482C265.241 57.0295 265.939 57.1649 266.678 57.1649H271.241V62.9566Z" fill="#231F20"/>
<path d="M305.028 47.6441C305.028 48.0087 305.012 48.3524 304.986 48.6858C304.97 49.0087 304.934 49.4462 304.882 49.9983H281.778C282.028 51.6128 282.538 52.9878 283.319 54.1233C284.095 55.2483 285.059 56.118 286.215 56.7274C287.366 57.3264 288.621 57.6233 289.986 57.6233C291.746 57.6233 293.173 57.2795 294.257 56.5816C295.35 55.8889 296.153 54.9149 296.653 53.6649H304.257C303.892 54.9878 303.288 56.2639 302.444 57.4983C301.611 58.7222 300.59 59.8108 299.382 60.7691C298.173 61.717 296.783 62.467 295.215 63.0191C293.658 63.5712 291.965 63.8524 290.132 63.8524C287.892 63.8524 285.84 63.441 283.965 62.6233C282.1 61.8055 280.486 60.6805 279.111 59.2483C277.736 57.8055 276.663 56.1389 275.903 54.2483C275.153 52.3472 274.778 50.3212 274.778 48.1649C274.778 45.9983 275.153 43.9722 275.903 42.0816C276.663 40.1962 277.736 38.5347 279.111 37.1024C280.486 35.6597 282.1 34.5295 283.965 33.7066C285.84 32.8889 287.892 32.4774 290.132 32.4774C292.35 32.4774 294.382 32.8837 296.215 33.6858C298.048 34.493 299.616 35.6024 300.923 37.0191C302.241 38.4253 303.257 40.0399 303.965 41.8733C304.673 43.6962 305.028 45.618 305.028 47.6441ZM282.069 44.6233H297.923C297.824 43.5139 297.408 42.5087 296.673 41.6024C295.949 40.6858 295.012 39.9514 293.861 39.3941C292.705 38.842 291.449 38.5608 290.09 38.5608C288.923 38.5608 287.798 38.7795 286.715 39.2066C285.642 39.6389 284.699 40.3003 283.882 41.1858C283.074 42.0764 282.47 43.2222 282.069 44.6233Z" fill="#231F20"/>
<path d="M317.655 62.9566H310.696V33.3732H317.384V38.7274C318.061 37.092 319.076 35.7899 320.425 34.8316C321.769 33.8628 323.405 33.3732 325.321 33.3732H328.488V39.3524H325.696C324.097 39.3524 322.696 39.743 321.488 40.5191C320.28 41.2847 319.332 42.3941 318.655 43.8524C317.988 45.3107 317.655 47.0972 317.655 49.2066V62.9566Z" fill="#231F20"/>
<path d="M344.106 63.8524C341.939 63.8524 340.048 63.5608 338.439 62.9774C336.84 62.4097 335.522 61.6389 334.481 60.6649C333.439 59.6805 332.658 58.5764 332.147 57.3524C331.647 56.118 331.397 54.8472 331.397 53.5399L338.064 53.5816C338.116 54.9149 338.653 56.0399 339.668 56.9566C340.694 57.8733 342.194 58.3316 344.168 58.3316C345.97 58.3316 347.298 57.9878 348.147 57.2899C349.007 56.5972 349.439 55.6962 349.439 54.5816C349.439 53.7378 349.194 53.0764 348.71 52.6024C348.236 52.118 347.533 51.7378 346.606 51.4566C345.673 51.1805 344.533 50.9462 343.189 50.7483C341.772 50.5555 340.423 50.2587 339.147 49.8524C337.866 49.4514 336.736 48.8941 335.751 48.1858C334.778 47.4774 334.007 46.592 333.439 45.5191C332.882 44.4514 332.606 43.1441 332.606 41.6024C332.606 39.7847 333.028 38.1962 333.876 36.8316C334.736 35.4722 335.991 34.4097 337.647 33.6441C339.314 32.868 341.34 32.4774 343.731 32.4774C346.116 32.4774 348.21 32.8837 350.001 33.6858C351.793 34.4774 353.189 35.592 354.189 37.0191C355.189 38.4514 355.689 40.1024 355.689 41.9774L348.856 41.9149C348.783 40.8212 348.319 39.9253 347.46 39.2274C346.611 38.5347 345.382 38.1858 343.772 38.1858C342.272 38.1858 341.173 38.5087 340.481 39.1441C339.783 39.7847 339.439 40.5555 339.439 41.4566C339.439 42.1962 339.595 42.7899 339.918 43.2483C340.251 43.6962 340.861 44.0608 341.751 44.3524C342.653 44.6441 343.944 44.9305 345.626 45.2066C347.168 45.4305 348.595 45.7378 349.918 46.1233C351.251 46.5139 352.408 47.0399 353.397 47.7066C354.382 48.3628 355.153 49.2066 355.71 50.2483C356.262 51.2899 356.543 52.6024 356.543 54.1858C356.543 56.3524 356.001 58.1545 354.918 59.5816C353.835 61.0139 352.356 62.0816 350.481 62.7899C348.616 63.4983 346.491 63.8524 344.106 63.8524Z" fill="#231F20"/>
</svg>
