<svg width="328" height="84" viewBox="0 0 328 84" fill="none" xmlns="http://www.w3.org/2000/svg">
<mask id="mask0_2_168" style="mask-type:luminance" maskUnits="userSpaceOnUse" x="0" y="0" width="55" height="84">
<path d="M0 0H54.0208V83.5938H0V0Z" fill="white"/>
</mask>
<g mask="url(#mask0_2_168)">
<path d="M21.3906 4.1875L50.3021 33.099C50.8802 33.6771 51.401 34.3125 51.8594 34.9948C52.3177 35.6823 52.7031 36.401 53.0156 37.1615C53.3333 37.9219 53.5677 38.7083 53.7292 39.5156C53.8906 40.3229 53.974 41.1354 53.974 41.9583C53.974 42.7812 53.8906 43.599 53.7292 44.4062C53.5677 45.2135 53.3333 45.9948 53.0156 46.7552C52.7031 47.5156 52.3177 48.2396 51.8594 48.9219C51.401 49.6042 50.8802 50.2396 50.3021 50.8229L21.3906 79.7292C13.4948 87.625 -0.0104189 82.0312 -1.60633e-06 70.8594V13.0417C-0.0104189 1.88541 13.4948 -3.70834 21.3906 4.1875Z" fill="#00BF63"/>
</g>
<mask id="mask1_2_168" style="mask-type:luminance" maskUnits="userSpaceOnUse" x="0" y="0" width="55" height="64">
<path d="M0 0H54.0208V63.9115H0V0Z" fill="white"/>
</mask>
<g mask="url(#mask1_2_168)">
<path d="M21.3906 4.1875C13.5417 -3.66146 0.192711 1.82292 0.00521088 12.8542C0.00521088 12.8542 45.4948 55.8958 38.2604 62.9115L50.3281 50.849C50.9063 50.2656 51.4271 49.6302 51.8854 48.9479C52.3438 48.2656 52.7292 47.5417 53.0417 46.7813C53.3594 46.0208 53.5938 45.2396 53.7552 44.4323C53.9167 43.625 53.9948 42.8073 53.9948 41.9844C53.9948 41.1615 53.9167 40.349 53.7552 39.5417C53.5938 38.7344 53.3594 37.9479 53.0417 37.1875C52.7292 36.4271 52.3438 35.7083 51.8854 35.0208C51.4271 34.3385 50.9063 33.7031 50.3281 33.125L21.3906 4.1875Z" fill="#7ED957"/>
</g>
<mask id="mask2_2_168" style="mask-type:luminance" maskUnits="userSpaceOnUse" x="72" y="0" width="18" height="18">
<path d="M72.6875 0H89.5677V17.2448H72.6875V0Z" fill="white"/>
</mask>
<g mask="url(#mask2_2_168)">
<path d="M89.9375 8.28646C89.9375 8.82292 89.8854 9.35417 89.7812 9.88542C89.6771 10.4115 89.5208 10.9219 89.3177 11.4219C89.1094 11.9167 88.8594 12.3906 88.5573 12.8385C88.2604 13.2865 87.9219 13.6979 87.5417 14.0781C87.1615 14.4583 86.7448 14.7969 86.2969 15.099C85.849 15.3958 85.3802 15.6458 84.8802 15.8542C84.3854 16.0573 83.875 16.2135 83.3437 16.3177C82.8177 16.4271 82.2865 16.4792 81.75 16.4792C81.2083 16.4792 80.6771 16.4271 80.151 16.3177C79.625 16.2135 79.1094 16.0573 78.6146 15.8542C78.1146 15.6458 77.6458 15.3958 77.1979 15.099C76.75 14.7969 76.3385 14.4583 75.9583 14.0781C75.5781 13.6979 75.2344 13.2865 74.9375 12.8385C74.6406 12.3906 74.3854 11.9167 74.1823 11.4219C73.974 10.9219 73.8177 10.4115 73.7135 9.88542C73.6094 9.35417 73.5573 8.82292 73.5573 8.28646C73.5573 7.75 73.6094 7.21354 73.7135 6.6875C73.8177 6.16146 73.974 5.65104 74.1823 5.15104C74.3854 4.65625 74.6406 4.18229 74.9375 3.73438C75.2344 3.28646 75.5781 2.875 75.9583 2.49479C76.3385 2.11458 76.75 1.77604 77.1979 1.47396C77.6458 1.17708 78.1146 0.921874 78.6146 0.71875C79.1094 0.510417 79.625 0.359376 80.151 0.25C80.6771 0.145833 81.2083 0.09375 81.75 0.09375C82.2865 0.09375 82.8177 0.145833 83.3437 0.25C83.875 0.359376 84.3854 0.510417 84.8802 0.71875C85.3802 0.921874 85.849 1.17708 86.2969 1.47396C86.7448 1.77604 87.1615 2.11458 87.5417 2.49479C87.9219 2.875 88.2604 3.28646 88.5573 3.73438C88.8594 4.18229 89.1094 4.65625 89.3177 5.15104C89.5208 5.65104 89.6771 6.16146 89.7812 6.6875C89.8854 7.21354 89.9375 7.75 89.9375 8.28646Z" fill="#C1FF72"/>
<path d="M89.9375 8.28646C89.9375 8.82292 89.8854 9.35417 89.7812 9.88542C89.6771 10.4115 89.5208 10.9219 89.3177 11.4219C89.1094 11.9167 88.8594 12.3906 88.5573 12.8385C88.2604 13.2865 87.9219 13.6979 87.5417 14.0781C87.1615 14.4583 86.7448 14.7969 86.2969 15.099C85.849 15.3958 85.3802 15.6458 84.8802 15.8542C84.3854 16.0573 83.875 16.2135 83.3437 16.3177C82.8177 16.4271 82.2865 16.4792 81.75 16.4792C81.2083 16.4792 80.6771 16.4271 80.151 16.3177C79.625 16.2135 79.1094 16.0573 78.6146 15.8542C78.1146 15.6458 77.6458 15.3958 77.1979 15.099C76.75 14.7969 76.3385 14.4583 75.9583 14.0781C75.5781 13.6979 75.2344 13.2865 74.9375 12.8385C74.6406 12.3906 74.3854 11.9167 74.1823 11.4219C73.974 10.9219 73.8177 10.4115 73.7135 9.88542C73.6094 9.35417 73.5573 8.82292 73.5573 8.28646C73.5573 7.75 73.6094 7.21354 73.7135 6.6875C73.8177 6.16146 73.974 5.65104 74.1823 5.15104C74.3854 4.65625 74.6406 4.18229 74.9375 3.73438C75.2344 3.28646 75.5781 2.875 75.9583 2.49479C76.3385 2.11458 76.75 1.77604 77.1979 1.47396C77.6458 1.17708 78.1146 0.921874 78.6146 0.71875C79.1094 0.510417 79.625 0.359376 80.151 0.25C80.6771 0.145833 81.2083 0.09375 81.75 0.09375C82.2865 0.09375 82.8177 0.145833 83.3437 0.25C83.875 0.359376 84.3854 0.510417 84.8802 0.71875C85.3802 0.921874 85.849 1.17708 86.2969 1.47396C86.7448 1.77604 87.1615 2.11458 87.5417 2.49479C87.9219 2.875 88.2604 3.28646 88.5573 3.73438C88.8594 4.18229 89.1094 4.65625 89.3177 5.15104C89.5208 5.65104 89.6771 6.16146 89.7812 6.6875C89.8854 7.21354 89.9375 7.75 89.9375 8.28646Z" fill="#C1FF72"/>
</g>
<mask id="mask3_2_168" style="mask-type:luminance" maskUnits="userSpaceOnUse" x="34" y="1" width="56" height="83">
<path d="M34.0208 1.24478H89.5677V83.5937H34.0208V1.24478Z" fill="white"/>
</mask>
<g mask="url(#mask3_2_168)">
<path d="M86.2656 33.1667L57.3542 4.26041C49.5938 -3.51043 28.9063 5.49999 35.9896 12.5781L56.7761 33.375C57.3594 33.9531 57.8802 34.5885 58.3386 35.2708C58.7917 35.9531 59.1771 36.6771 59.4948 37.4375C59.8073 38.1979 60.0469 38.9792 60.2083 39.7864C60.3698 40.5937 60.4479 41.4114 60.4479 42.2344C60.4479 43.0573 60.3698 43.8698 60.2083 44.6771C60.0469 45.4844 59.8073 46.2656 59.4948 47.026C59.1771 47.7864 58.7917 48.5104 58.3386 49.1927C57.8802 49.875 57.3594 50.5104 56.7761 51.0937L36 71.875C29.6667 78.2031 49.6719 87.5365 57.3542 79.8542L86.2656 50.9427C86.849 50.3594 87.375 49.7292 87.8333 49.0417C88.2917 48.3542 88.6823 47.6302 89 46.8698C89.3177 46.1042 89.5573 45.3177 89.7188 44.5104C89.8802 43.6979 89.9583 42.8802 89.9583 42.0573C89.9583 41.2292 89.8802 40.4114 89.7188 39.5989C89.5573 38.7917 89.3177 38.0052 89 37.2448C88.6823 36.4792 88.2917 35.7552 87.8333 35.0677C87.375 34.3854 86.849 33.75 86.2656 33.1667Z" fill="#7ED957"/>
</g>
<mask id="mask4_2_168" style="mask-type:luminance" maskUnits="userSpaceOnUse" x="34" y="1" width="56" height="62">
<path d="M34.0208 1.24478H89.5677V62.5781H34.0208V1.24478Z" fill="white"/>
</mask>
<g mask="url(#mask4_2_168)">
<path d="M86.2656 33.1667L57.3542 4.26041C49.5938 -3.51043 28.9063 5.49999 35.9896 12.5781L56.7761 33.375C57.7813 34.375 58.5886 35.5156 59.2031 36.7917C59.8177 38.0729 60.2031 39.4167 60.3594 40.8229C67.5261 49.2344 73.4792 57.401 74.7188 62.4896L86.2813 50.9219C86.8646 50.3437 87.3906 49.7083 87.849 49.0208C88.3073 48.3333 88.6927 47.6094 89.0052 46.8489C89.3229 46.0885 89.5625 45.3021 89.7188 44.4948C89.8802 43.6823 89.9636 42.8646 89.9583 42.0417C89.9583 41.2187 89.8802 40.401 89.7136 39.5937C89.5521 38.7812 89.3125 38 88.9948 37.2344C88.6823 36.4739 88.2917 35.75 87.8333 35.0677C87.3698 34.3802 86.849 33.75 86.2656 33.1667Z" fill="#00BF63"/>
</g>
<path d="M129.873 63.7014C127.566 63.7014 125.378 63.3576 123.311 62.6805C121.238 62.0035 119.342 61.0347 117.623 59.7847C115.915 58.5347 114.425 57.066 113.165 55.368C111.915 53.6597 110.941 51.7795 110.248 49.7222C109.55 47.6701 109.206 45.5087 109.206 43.243C109.206 40.967 109.55 38.8055 110.248 36.7639C110.941 34.7118 111.915 32.8368 113.165 31.1389C114.425 29.4462 115.915 27.9722 117.623 26.7222C119.342 25.4722 121.238 24.5087 123.311 23.8264C125.378 23.1493 127.566 22.8055 129.873 22.8055C131.941 22.8055 133.988 23.118 136.019 23.743C138.061 24.3576 139.962 25.2951 141.727 26.5555C143.488 27.8055 144.983 29.3889 146.206 31.3055C147.441 33.2222 148.29 35.4878 148.748 38.0972H141.436C140.92 36.0868 140.092 34.441 138.956 33.1597C137.816 31.868 136.446 30.9201 134.852 30.3055C133.253 29.6805 131.524 29.368 129.665 29.368C127.831 29.368 126.108 29.7014 124.498 30.368C122.884 31.0243 121.467 31.967 120.248 33.2014C119.024 34.4253 118.071 35.8889 117.394 37.5972C116.712 39.2951 116.373 41.1805 116.373 43.2639C116.373 45.4045 116.712 47.3212 117.394 49.0139C118.071 50.7118 119.024 52.1597 120.248 53.368C121.467 54.5764 122.884 55.5087 124.498 56.1597C126.108 56.8003 127.831 57.118 129.665 57.118C131.524 57.118 133.248 56.816 134.831 56.2014C136.415 55.5764 137.779 54.6285 138.936 53.3472C140.087 52.0555 140.915 50.4201 141.415 48.4305H148.748C148.29 51.0295 147.441 53.2951 146.206 55.2222C144.983 57.1545 143.498 58.743 141.748 59.993C140.009 61.243 138.123 62.1753 136.081 62.7847C134.04 63.3941 131.967 63.7014 129.873 63.7014Z" fill="#231F20"/>
<path d="M161.721 62.868H154.763V22.3472H161.721V34.4097L161.554 37.7222C162.471 36.1128 163.789 34.8212 165.513 33.8472C167.232 32.8785 169.226 32.3889 171.492 32.3889C175.461 32.3889 178.435 33.6545 180.409 36.1805C182.377 38.6962 183.367 42.2795 183.367 46.9305V62.868H176.409V47.0764C176.409 44.1337 175.789 42.0243 174.554 40.743C173.331 39.4514 171.664 38.8055 169.554 38.8055C168.539 38.8055 167.56 39.0243 166.617 39.4514C165.685 39.8837 164.846 40.493 164.096 41.2847C163.357 42.0764 162.773 43.0243 162.346 44.118C161.929 45.217 161.721 46.4305 161.721 47.7639V62.868Z" fill="#231F20"/>
<path d="M203.145 63.7639C201.145 63.7639 199.296 63.3576 197.603 62.5556C195.905 61.7535 194.426 60.6337 193.165 59.2014C191.915 57.7587 190.941 56.0868 190.249 54.1806C189.551 52.2795 189.207 50.2431 189.207 48.0764C189.207 45.9097 189.551 43.8837 190.249 41.9931C190.957 40.1076 191.936 38.4462 193.186 37.0139C194.447 35.5712 195.921 34.441 197.603 33.6181C199.296 32.8003 201.134 32.3889 203.124 32.3889C205.54 32.3889 207.686 32.9201 209.561 33.9722C211.436 35.0139 212.843 36.4514 213.79 38.2847V33.2847H220.415V62.8681H213.79V57.8889C212.832 59.7378 211.415 61.1806 209.54 62.2222C207.676 63.2483 205.546 63.7639 203.145 63.7639ZM204.811 57.3056C206.02 57.3056 207.15 57.0764 208.207 56.6181C209.259 56.1493 210.186 55.4931 210.978 54.6597C211.78 53.8264 212.4 52.8472 212.832 51.7222C213.275 50.5972 213.499 49.3837 213.499 48.0764C213.499 46.7847 213.27 45.5868 212.811 44.4722C212.363 43.3472 211.749 42.3628 210.957 41.5139C210.176 40.6701 209.259 40.0139 208.207 39.5556C207.15 39.0868 206.02 38.8472 204.811 38.8472C203.212 38.8472 201.754 39.2326 200.436 39.9931C199.129 40.7587 198.082 41.8368 197.29 43.2222C196.509 44.5972 196.124 46.217 196.124 48.0764C196.124 49.9931 196.52 51.6493 197.311 53.0347C198.103 54.4097 199.155 55.467 200.478 56.2014C201.811 56.941 203.254 57.3056 204.811 57.3056Z" fill="#231F20"/>
<path d="M246.767 62.868H240.746C239.871 62.868 238.965 62.7951 238.037 62.6389C237.105 62.4722 236.215 62.1701 235.371 61.7222C234.522 61.2795 233.767 60.6389 233.1 59.8055C232.444 58.9722 231.918 57.8889 231.517 56.5555C231.126 55.2222 230.933 53.5764 230.933 51.618V39.2639H224.808V33.2847H230.933V24.618L237.912 24.5555V33.2847H246.767V39.2639H237.912V51.9305C237.912 53.3212 238.11 54.3889 238.517 55.1389C238.918 55.8785 239.444 56.3837 240.1 56.6597C240.767 56.941 241.465 57.0764 242.204 57.0764H246.767V62.868Z" fill="#231F20"/>
<path d="M270.595 62.868H264.574C263.699 62.868 262.793 62.7951 261.866 62.6389C260.934 62.4722 260.043 62.1701 259.199 61.7222C258.35 61.2795 257.595 60.6389 256.928 59.8055C256.272 58.9722 255.746 57.8889 255.345 56.5555C254.954 55.2222 254.762 53.5764 254.762 51.618V39.2639H248.637V33.2847H254.762V24.618L261.741 24.5555V33.2847H270.595V39.2639H261.741V51.9305C261.741 53.3212 261.939 54.3889 262.345 55.1389C262.746 55.8785 263.272 56.3837 263.928 56.6597C264.595 56.941 265.293 57.0764 266.032 57.0764H270.595V62.868Z" fill="#231F20"/>
<path d="M304.382 47.5556C304.382 47.9201 304.366 48.2639 304.34 48.5972C304.324 48.9201 304.288 49.3576 304.236 49.9097H281.132C281.382 51.5243 281.892 52.8993 282.673 54.0347C283.449 55.1597 284.413 56.0295 285.569 56.6389C286.72 57.2378 287.975 57.5347 289.34 57.5347C291.1 57.5347 292.528 57.191 293.611 56.4931C294.705 55.8003 295.507 54.8264 296.007 53.5764H303.611C303.246 54.8993 302.642 56.1753 301.798 57.4097C300.965 58.6337 299.944 59.7222 298.736 60.6806C297.528 61.6285 296.137 62.3785 294.569 62.9306C293.012 63.4826 291.319 63.7639 289.486 63.7639C287.246 63.7639 285.194 63.3524 283.319 62.5347C281.455 61.717 279.84 60.592 278.465 59.1597C277.09 57.717 276.017 56.0503 275.257 54.1597C274.507 52.2587 274.132 50.2326 274.132 48.0764C274.132 45.9097 274.507 43.8837 275.257 41.9931C276.017 40.1076 277.09 38.4462 278.465 37.0139C279.84 35.5712 281.455 34.441 283.319 33.6181C285.194 32.8003 287.246 32.3889 289.486 32.3889C291.705 32.3889 293.736 32.7951 295.569 33.5972C297.403 34.4045 298.97 35.5139 300.278 36.9306C301.595 38.3368 302.611 39.9514 303.319 41.7847C304.028 43.6076 304.382 45.5295 304.382 47.5556ZM281.423 44.5347H297.278C297.179 43.4253 296.762 42.4201 296.028 41.5139C295.304 40.5972 294.366 39.8628 293.215 39.3056C292.059 38.7535 290.804 38.4722 289.444 38.4722C288.278 38.4722 287.153 38.691 286.069 39.1181C284.996 39.5503 284.054 40.2118 283.236 41.0972C282.429 41.9878 281.824 43.1337 281.423 44.5347Z" fill="#231F20"/>
<path d="M317.009 62.868H310.05V33.2847H316.738V38.6389C317.415 37.0035 318.431 35.7014 319.78 34.743C321.123 33.7743 322.759 33.2847 324.675 33.2847H327.842V39.2639H325.05C323.451 39.2639 322.05 39.6545 320.842 40.4305C319.634 41.1962 318.686 42.3055 318.009 43.7639C317.342 45.2222 317.009 47.0087 317.009 49.118V62.868Z" fill="#231F20"/>
</svg>
