<svg width="222" height="59" viewBox="0 0 222 59" fill="none" xmlns="http://www.w3.org/2000/svg">
<path d="M8.87065 6.66314C9.52278 2.81561 12.8558 0 16.7582 0H212.53C217.482 0 221.245 4.45409 220.417 9.33687L213.129 52.3369C212.477 56.1844 209.144 59 205.242 59H9.47004C4.51762 59 0.75493 54.5459 1.58252 49.6631L8.87065 6.66314Z" fill="black"/>
<rect x="132" y="17.8" width="5" height="35" transform="rotate(90 132 17.8)" fill="white"/>
<rect x="105" y="18" width="5" height="25.2" fill="white"/>
<rect x="119" y="18" width="5" height="25.2" fill="white"/>
<path d="M39.3779 43.504C35.5859 43.504 32.4539 42.244 29.9819 39.724C27.5099 37.204 26.2739 34.096 26.2739 30.4C26.2739 26.68 27.5099 23.572 29.9819 21.076C32.4539 18.556 35.5859 17.296 39.3779 17.296C41.6579 17.296 43.7579 17.836 45.6779 18.916C47.6219 19.972 49.1339 21.412 50.2139 23.236L45.9299 25.72C45.3059 24.592 44.4179 23.716 43.2659 23.092C42.1139 22.444 40.8179 22.12 39.3779 22.12C36.9299 22.12 34.9499 22.888 33.4379 24.424C31.9499 25.96 31.2059 27.952 31.2059 30.4C31.2059 32.824 31.9499 34.804 33.4379 36.34C34.9499 37.876 36.9299 38.644 39.3779 38.644C40.8179 38.644 42.1139 38.332 43.2659 37.708C44.4419 37.06 45.3299 36.184 45.9299 35.08L50.2139 37.564C49.1339 39.388 47.6339 40.84 45.7139 41.92C43.7939 42.976 41.6819 43.504 39.3779 43.504ZM67.5938 17.8H72.5258V43H67.5938V32.56H58.2338V43H53.2658V17.8H58.2338V27.808H67.5938V17.8ZM93.4072 43L91.8952 38.464H81.8512L80.3392 43H74.9752L83.7952 17.8H89.9512L98.8072 43H93.4072ZM83.4352 33.82H90.3472L86.8912 23.524L83.4352 33.82Z" fill="white"/>
<path d="M140.406 38.248H151.026V43H135.438V17.8H150.846V22.552H140.406V27.916H149.946V32.596H140.406V38.248ZM168.352 43L163.276 34.252H159.496V43H154.528V17.8H164.608C166.936 17.8 168.916 18.616 170.548 20.248C172.18 21.88 172.996 23.848 172.996 26.152C172.996 27.712 172.552 29.164 171.664 30.508C170.776 31.828 169.6 32.824 168.136 33.496L173.716 43H168.352ZM159.496 22.444V29.896H164.608C165.544 29.896 166.348 29.536 167.02 28.816C167.692 28.072 168.028 27.184 168.028 26.152C168.028 25.12 167.692 24.244 167.02 23.524C166.348 22.804 165.544 22.444 164.608 22.444H159.496ZM184.858 43.504C182.362 43.504 180.262 42.952 178.558 41.848C176.854 40.72 175.654 39.196 174.958 37.276L179.206 34.792C180.19 37.36 182.122 38.644 185.002 38.644C186.394 38.644 187.414 38.392 188.062 37.888C188.71 37.384 189.034 36.748 189.034 35.98C189.034 35.092 188.638 34.408 187.846 33.928C187.054 33.424 185.638 32.884 183.598 32.308C182.47 31.972 181.51 31.636 180.718 31.3C179.95 30.964 179.17 30.52 178.378 29.968C177.61 29.392 177.022 28.672 176.614 27.808C176.206 26.944 176.002 25.936 176.002 24.784C176.002 22.504 176.806 20.692 178.414 19.348C180.046 17.98 182.002 17.296 184.282 17.296C186.322 17.296 188.11 17.8 189.646 18.808C191.206 19.792 192.418 21.172 193.282 22.948L189.106 25.36C188.098 23.2 186.49 22.12 184.282 22.12C183.25 22.12 182.434 22.36 181.834 22.84C181.258 23.296 180.97 23.896 180.97 24.64C180.97 25.432 181.294 26.08 181.942 26.584C182.614 27.064 183.886 27.592 185.758 28.168C186.526 28.408 187.102 28.6 187.486 28.744C187.894 28.864 188.434 29.068 189.106 29.356C189.802 29.62 190.33 29.872 190.69 30.112C191.074 30.352 191.506 30.676 191.986 31.084C192.466 31.492 192.826 31.912 193.066 32.344C193.33 32.776 193.546 33.304 193.714 33.928C193.906 34.528 194.002 35.188 194.002 35.908C194.002 38.236 193.15 40.084 191.446 41.452C189.766 42.82 187.57 43.504 184.858 43.504Z" fill="white"/>
</svg>
